<?xml version="1.0" encoding="iso-8859-1"?>
<!-- Generator: Adobe Illustrator 19.0.0, SVG Export Plug-In . SVG Version: 6.00 Build 0)  -->
<svg version="1.1" id="Layer_1" xmlns="http://www.w3.org/2000/svg" xmlns:xlink="http://www.w3.org/1999/xlink" x="0px" y="0px"
	 viewBox="0 0 299.142 299.142" style="enable-background:new 0 0 299.142 299.142;" xml:space="preserve">
<g>
	<g>
		<path d="M265.168,3.999C262.608,1.439,259.136,0,255.515,0c-3.62,0-7.093,1.439-9.652,3.999L91.439,158.425
			c-0.001,0.001-0.003,0.003-0.005,0.004l-70.864,70.861c-7.72,7.721-11.96,17.994-11.938,28.928
			c0.022,10.915,4.29,21.18,12.016,28.904c7.75,7.751,18.045,12.02,28.989,12.02c10.903,0,21.148-4.242,28.843-11.941l61.208-61.208
			l3.215,3.216c2.561,2.56,6.032,3.999,9.651,3.999h0.001c3.62,0,7.093-1.439,9.651-3.998l103.176-103.17
			C298.969,92.451,298.872,37.703,265.168,3.999z M59.176,267.899c-2.542,2.543-5.93,3.943-9.538,3.943
			c-3.651,0-7.09-1.428-9.685-4.024c-2.585-2.584-4.013-6.012-4.02-9.654c-0.007-3.622,1.393-7.02,3.943-9.57l61.21-61.208
			l19.3,19.303L59.176,267.899z M246.079,106.735l-93.522,93.518l-32.168-32.172L254.398,34.072
			C268.476,56.842,265.717,87.095,246.079,106.735z"/>
	</g>
</g>
</svg>
